<svg viewBox="0 0 24 24" xmlns="http://www.w3.org/2000/svg">
  <path fill="#4989F5" d="M3 8.6h18v9.6a1.6 1.6 0 0 1-1.6 1.6H4.6A1.6 1.6 0 0 1 3 18.2Z"/>
  <path fill="#7BABF7" d="M2.00 4.4H6.00V9.4A2.00 2.00 0 0 1 2.00 9.4Z"/>
  <path fill="#3C4BA6" d="M6.00 4.4H10.00V9.4A2.00 2.00 0 0 1 6.00 9.4Z"/>
  <path fill="#7BABF7" d="M10.00 4.4H14.00V9.4A2.00 2.00 0 0 1 10.00 9.4Z"/>
  <path fill="#3C4BA6" d="M14.00 4.4H18.00V9.4A2.00 2.00 0 0 1 14.00 9.4Z"/>
  <path fill="#7BABF7" d="M18.00 4.4H22.00V9.4A2.00 2.00 0 0 1 18.00 9.4Z"/>
  <circle cx="16.6" cy="15.1" r="3.3" fill="#fff"/>
  <path d="M18.4 14.05A2.1 2.1 0 1 0 18.7 15.1H16.8" fill="none" stroke="#4989F5" stroke-width="1.5" stroke-linecap="round" stroke-linejoin="round"/>
</svg>
