<svg viewBox="0 0 24 24" xmlns="http://www.w3.org/2000/svg">
  <defs>
    <linearGradient id="ig" x1="0%" y1="100%" x2="100%" y2="0%">
      <stop offset="0%" stop-color="#FEDA77"/>
      <stop offset="25%" stop-color="#F58529"/>
      <stop offset="50%" stop-color="#DD2A7B"/>
      <stop offset="75%" stop-color="#8134AF"/>
      <stop offset="100%" stop-color="#515BD4"/>
    </linearGradient>
  </defs>
  <path fill="url(#ig)" d="M12 2.163c3.204 0 3.584.012 4.85.07 1.366.062 2.633.336 3.608 1.311.975.975 1.249 2.242 1.311 3.608.058 1.266.07 1.646.07 4.85s-.012 3.584-.07 4.85c-.062 1.366-.336 2.633-1.311 3.608-.975.975-2.242 1.249-3.608 1.311-1.266.058-1.646.07-4.85.07s-3.584-.012-4.85-.07c-1.366-.062-2.633-.336-3.608-1.311-.975-.975-1.249-2.242-1.311-3.608C2.175 15.747 2.163 15.367 2.163 12s.012-3.584.07-4.85c.062-1.366.336-2.633 1.311-3.608.975-.975 2.242-1.249 3.608-1.311C8.416 2.175 8.796 2.163 12 2.163zm0 1.441c-3.141 0-3.511.012-4.75.069-.975.045-1.504.207-1.857.344-.467.182-.8.399-1.15.748-.35.35-.566.683-.748 1.15-.137.353-.299.882-.344 1.857-.057 1.239-.069 1.609-.069 4.75s.012 3.511.069 4.75c.045.975.207 1.504.344 1.857.182.467.399.8.748 1.15.35.35.683.566 1.15.748.353.137.882.299 1.857.344 1.239.057 1.609.069 4.75.069s3.511-.012 4.75-.069c.975-.045 1.504-.207 1.857-.344.467-.182.8-.399 1.15-.748.35-.35.566-.683.748-1.15.137-.353.299-.882.344-1.857.057-1.239.069-1.609.069-4.75s-.012-3.511-.069-4.75c-.045-.975-.207-1.504-.344-1.857a3.096 3.096 0 0 0-.748-1.15 3.096 3.096 0 0 0-1.15-.748c-.353-.137-.882-.299-1.857-.344-1.239-.057-1.609-.069-4.75-.069zm0 2.452a5.944 5.944 0 1 1 0 11.888 5.944 5.944 0 0 1 0-11.888zm0 9.805a3.861 3.861 0 1 0 0-7.722 3.861 3.861 0 0 0 0 7.722zm7.566-10.05a1.389 1.389 0 1 1-2.778 0 1.389 1.389 0 0 1 2.778 0z"/>
</svg>
