<svg xmlns="http://www.w3.org/2000/svg" viewBox="0 0 287 191" fill="#0081FB"><path d="M31.06 126c0 11 2.41 19.41 5.56 24.51A19 19 0 0 0 53.19 160c8 0 15.32-2 29.42-21.5 11.3-15.63 24.62-37.57 33.58-51.33l15.17-23.32c10.54-16.19 22.74-34.19 36.73-46.39C179.49 7.5 191.86 0 204.31 0c20.9 0 40.81 12.11 56.05 34.82C277.05 59.68 285.15 91 285.15 123.3c0 19.2-3.79 33.3-10.23 44.44-6.23 10.78-18.38 21.55-38.82 21.55v-30.82c17.5 0 21.87-16.09 21.87-34.51 0-26.24-6.12-55.35-19.6-76.16-9.56-14.76-21.95-23.78-35.58-23.78-14.75 0-26.62 11.13-40 31-7.1 10.56-14.39 23.43-22.57 37.95L131.7 108.6c-19.11 33.9-24 41.62-33.6 54.42C81.35 185.34 67.09 191 53.19 191c-21.1 0-34.44-9.14-42.71-22.9C3.71 156.86 0 141.83 0 124.71l31.06 1.29Z"/><path d="M24.49 37A96.12 96.12 0 0 1 55 12C67 5.13 78.6 0 91 0c11.9 0 24 3.87 36.86 15.11 14.05 12.3 29 32.55 47.68 65.86l6.71 12c16.15 28.87 25.35 43.72 30.73 50.72 6.92 9 11.77 11.68 18.07 11.68 17.5 0 21.87-16.09 21.87-34.51l27.42-.86c0 19.2-3.79 33.3-10.23 44.44-6.23 10.78-18.38 21.55-38.82 21.55-12.71 0-23.97-2.76-36.42-14.5-9.57-9-20.76-25-29.37-39.4l-25.61-42.77c-12.85-21.47-24.64-37.48-31.46-44.73-7.34-7.8-16.77-17.22-31.82-17.22-12.18 0-22.52 8.54-31.18 21.61L24.49 37Z"/><path d="M90.49 30.97c-12.18 0-22.52 8.54-31.18 21.61C47.06 71.05 39.53 98.5 39.53 124.83c0 10.85 2.37 19.19 5.47 24.4l-26.5 17.44C11.71 156.86 8 141.83 8 124.71 8 94.29 16.35 62.58 32.49 37 46.75 14.42 67.34 0 91 0l-.51 30.97Z"/></svg>
